Simulation
nRows=28
nColumns=15
endheader
time  TH_x TH_y TH_z SC_y  SC_z  SC_x  AC_y  AC_z  AC_x  GH_y  GH_z  GH_yy  EL_x  PS_y
8.6175  0.000000  0.000000  0.000000  -36.684026255626684  1.324389813237614  -5.569276448150041  45.673622166121106  2.0253159841971895  3.624866939235479  15.165106964978403  8.332924456931543  -1.6321571752067647  20.539974713376182  120.000000
8.67495  0.000000  0.000000  0.000000  -35.73639082389164  0.6959286688641698  -6.148608564569708  47.201034180193965  0.7275186440967721  5.187333796958746  3.1761812811792174  11.047954208520235  8.149503972846173  20.498923304400243  120.000000
8.7324  0.000000  0.000000  0.000000  -34.988762119800015  -0.13733912360677306  -6.841571929134245  49.11773445822821  -0.7192238492768531  7.174255993672786  -4.5210920293933246  14.538820531543047  13.959510223930318  20.619455835039435  120.000000
8.78985  0.000000  0.000000  0.000000  -34.47399286935815  -1.1346088748362249  -7.6198181199005734  51.33472863574928  -2.309971232264125  9.528055121834342  -9.251666398807973  18.582665636598335  17.220363499991713  20.87350987015586  120.000000
8.8473  0.000000  0.000000  0.000000  -34.218769419307904  -2.2225014410173873  -8.396033172490574  53.70269633165724  -4.021378676666669  12.145312120156431  -11.915172966779966  22.865674981557106  18.885406158861795  21.197103915227878  120.000000
8.90475  0.000000  0.000000  0.000000  -34.22291745911122  -3.298709798951215  -9.097749808238314  56.07545134423356  -5.720569143462187  14.906966509648365  -12.989175240520964  26.999985482735564  19.439595532397934  21.517449295039565  120.000000
8.9622  0.000000  0.000000  0.000000  -34.444344516569586  -4.191741509889369  -9.64597780404467  58.34873866642705  -7.19038183911902  17.670772000277235  -12.690955921049005  30.59047445266079  19.049092103657003  21.79181245457207  120.000000
9.01965  0.000000  0.000000  0.000000  -34.84350360459791  -4.72748171286515  -9.904192938275692  60.48953909032764  -8.223091426829239  20.23696689782328  -11.090423241194054  33.35381645732037  17.651527782088273  22.00340685320368  120.000000
9.0771  0.000000  0.000000  0.000000  -35.47051900574122  -4.773307347020728  -9.733942335833579  62.52134274055632  -8.677575636282455  22.41399690515034  -8.14418213347691  35.183557663564876  15.002162668325793  22.145021307626372  120.000000
9.13455  0.000000  0.000000  0.000000  -36.43143926430712  -4.205975589401865  -9.00515143339927  64.47929451560971  -8.549719212884831  24.10209359555845  -3.7924107750483986  36.14294612846618  10.79165928278565  22.226113136819638  120.000000
9.192  0.000000  0.000000  0.000000  -37.68783375328253  -2.9278153270605287  -7.559481408116696  66.35924398805331  -7.985318321976534  25.28031520344271  1.8487837089240933  36.45070941443166  4.838594611805391  22.240216986091543  120.000000
9.24945  0.000000  0.000000  0.000000  -39.047989712090406  -0.888870207026078  -5.199242978079081  68.0865701446804  -7.277470633627979  26.018303384028087  8.42833594291652  36.4193398448152  -2.793658345145711  22.150034268089414  120.000000
9.3069  0.000000  0.000000  0.000000  -40.345303443226754  1.8485075354323175  -1.7586370998376217  69.59713824219718  -6.707481468919944  26.4300078474003  15.582809400377148  36.37547828817476  -11.893839953686038  21.918463129567268  120.000000
9.36435  0.000000  0.000000  0.000000  -41.5716791148116  5.091438711286203  2.8110897826788155  70.86595644086614  -6.354564147972158  26.579673317428764  23.084060973356248  36.623870427882565  -22.16299559394803  21.544951310994477  120.000000
9.421800000000001  0.000000  0.000000  0.000000  -42.915717494774924  8.625160937295725  8.448432780009389  71.82310018933308  -6.212244048729917  26.51155104823536  30.666968471797343  37.424324577798096  -33.0708042992962  21.06509093030711  120.000000
9.47925  0.000000  0.000000  0.000000  -44.59264977338262  12.229754556027244  15.002423694318868  72.33381344088896  -6.2834342600765245  26.268375810467116  37.92942316693636  38.86961505122414  -43.8676054513356  20.519186389900838  120.000000
9.5367  0.000000  0.000000  0.000000  -46.64595487497549  15.653891543992039  22.211398682575304  72.27560437229178  -6.557382987632335  25.897642659512574  44.49230497455164  40.846020821575095  -53.865985758029495  19.950126832718915  120.000000
9.59415  0.000000  0.000000  0.000000  -48.9261663895884  18.665810861753783  29.71951517847702  71.62480213365757  -6.998159927671967  25.443458497456263  50.04298824535561  43.123806513635515  -62.524748517715665  19.39628886603837  120.000000
9.6516  0.000000  0.000000  0.000000  -51.20711654723346  21.109895931890367  37.10746629826216  70.46751142213135  -7.55220449690556  24.941788847387848  54.3799483617615  45.40783767823942  -69.49920630917222  18.890089623005704  120.000000
9.70905  0.000000  0.000000  0.000000  -53.31295378760473  22.881457873851367  43.94295291147854  68.98492794517473  -8.1692791088871  24.404718689624517  57.50667999100261  47.42203467865108  -74.7056235422551  18.46196542795833  120.000000
9.7665  0.000000  0.000000  0.000000  -55.09736966083149  23.966735727512546  49.848217714452055  67.39354133605417  -8.818022278895308  23.815139775661542  59.601891697519655  48.99779643527383  -78.27662593929898  18.136463420711003  120.000000
9.82395  0.000000  0.000000  0.000000  -56.434737115125166  24.47129089499599  54.5575136747378  65.90267963127124  -9.477870547261807  23.14807572687394  60.91603107485832  50.10424287521359  -80.47184024015043  17.92017665324257  120.000000
9.8814  0.000000  0.000000  0.000000  -57.24206634480269  24.560987831703777  57.930909014671855  64.67751017902793  -10.132383564357403  22.389752007663468  61.6810898816516  50.800009373851736  -81.58050470111111  17.811613099670065  120.000000
9.93885  0.000000  0.000000  0.000000  -57.511872683478195  24.42986253901259  59.94487895543004  63.81252531788924  -10.768117502565993  21.54757806249379  62.08451714192169  51.16437965130195  -81.87313154777581  17.794044373102995  120.000000
9.9963  0.000000  0.000000  0.000000  -57.28777483508104  24.227136161808954  60.633424730099605  63.33907604341307  -11.378038121246455  20.64244929562675  62.26440354755682  51.26495260396161  -81.56196657659169  17.84126345513545  120.000000
10.05375  0.000000  0.000000  0.000000  -56.59393077445461  23.992731289634303  60.00305753785904  63.244901832696456  -11.955542972415158  19.70287543193922  62.2929963122031  51.15831343264382  -80.76358957227444  17.921649024755215  120.000000
10.1112  0.000000  0.000000  0.000000  -55.448650722446175  23.678013849380445  58.02931113786808  63.48019944959355  -12.50376378103746  18.7675203246702  62.17536188363216  50.899056478202716  -79.48206674562431  18.005175756139018  120.000000
10.16865  0.000000  0.000000  0.000000  -53.920142376559625  23.186039530805793  54.70545723142588  63.90363398716967  -13.007542293879965  17.88558033676219  61.92646878799423  50.52437170501903  -77.65595695698138  18.065620152558918  120.000000
